<?xml version="1.0" encoding="UTF-8" standalone="no"?>
<svg width="206px" height="206px" viewBox="0 0 206 206" version="1.1" xmlns="http://www.w3.org/2000/svg" xmlns:xlink="http://www.w3.org/1999/xlink">
    <!-- Generator: Sketch 47.1 (45422) - http://www.bohemiancoding.com/sketch -->
    <title>Group</title>
    <desc>Created with Sketch.</desc>
    <defs>
        <linearGradient x1="18.3072039%" y1="50%" x2="88.2542666%" y2="50%" id="linearGradient-1">
            <stop stop-color="#BC4E9C" offset="0%"></stop>
            <stop stop-color="#F80759" offset="100%"></stop>
        </linearGradient>
    </defs>
    <g id="Page-1" stroke="none" stroke-width="1" fill="none" fill-rule="evenodd">
        <g id="Group" fill-rule="nonzero">
            <g id="noun_1333795" fill="url(#linearGradient-1)">
                <path d="M199.541088,80.7134763 L187.658779,69.051579 C185.126288,66.5645423 183.557617,63.2585122 183.232037,59.7220613 L181.624431,43.1621672 C180.60038,32.5337092 172.083967,24.1853093 161.447805,23.3835895 L144.998962,22.194076 C141.491386,21.9167479 138.192722,20.4142356 135.679505,17.9491454 L123.797196,6.28724816 C116.190205,-1.18987805 104.313046,-2.10524905 95.652434,4.11813528 L82.0926231,13.79751 C79.2302176,15.8406809 75.7428525,16.8145658 72.2372967,16.5497177 L55.6719608,15.266909 C45.038247,14.4235399 35.3414381,21.3643409 32.6994977,31.7101841 L28.5057418,47.8502499 C27.6374451,51.303746 25.5734922,54.3368996 22.6810808,56.4100825 L9.1678672,65.9728382 C0.496637744,72.1843517 -2.45318818,83.7404649 2.17827398,93.3549729 L9.35425636,108.352173 C10.8762239,111.534009 11.230895,115.150606 10.3560981,118.567995 L6.18564076,134.684737 C3.52493521,145.017056 8.66437581,155.769394 18.3708316,160.177644 L33.5149503,167.058163 C36.7212741,168.517375 39.3115052,171.060854 40.8307245,174.241892 L47.9834082,189.355711 C52.5826949,198.938283 63.3757676,203.849521 73.6119167,201.017608 L89.7112798,196.352849 C93.1005841,195.411624 96.7124773,195.692302 99.9160859,197.145858 L115.060205,204.026378 C124.764546,208.447532 136.239131,205.238661 142.249722,196.422821 L151.56918,182.708429 C153.561329,179.797897 156.514751,177.683673 159.910094,176.737538 L175.916263,172.25937 L175.916263,172.25937 C186.195667,169.406756 192.932299,159.561641 191.875834,148.935575 L190.268228,132.375681 C189.924053,128.868005 190.823006,125.350873 192.80778,122.439745 L202.127237,108.725353 C208.141772,99.9896583 207.053095,88.1976586 199.541088,80.7134763 Z" id="Shape"></path>
            </g>
            <g id="noun_137618" transform="translate(61.000000, 72.000000)" fill="#FFFFFF">
                <path d="M81.088,44.05 C79.304,33.71 72.552,25.076 69.467,21.581 L75.126,15.6 C80.658,9.756 80.969,3.43 80.979,3.163 C81.032,1.805 79.979,0.664 78.619,0.602 C77.171,0.556 76.107,1.597 76.035,2.953 C76.024,3.148 75.729,7.76 71.528,12.195 L65.944,18.097 C62.257,14.898 53.824,8.487 43.798,6.759 C42.007,6.451 40.16,6.295 38.313,6.295 C27.523,6.295 19.517,11.524 19.182,11.747 C18.622,12.118 18.238,12.699 18.116,13.357 C17.994,14.017 18.143,14.697 18.53,15.244 C18.631,15.384 19.262,16.255 20.299,17.512 C12.155,23.833 7.882,33.417 7.648,33.951 C7.186,35.01 7.518,36.248 8.448,36.934 C8.505,36.976 8.723,37.134 9.082,37.381 C1.445,46.504 0.491,59.725 0.451,60.381 C0.378,61.538 1.116,62.585 2.224,62.912 C2.297,62.935 2.947,63.118 3.954,63.345 C-0.431,73.14 0.717,84.279 0.786,84.878 C0.914,86.024 1.821,86.931 2.97,87.06 C3.036,87.07 4.627,87.244 7.086,87.244 C7.086,87.244 7.086,87.244 7.087,87.244 C11.383,87.244 18.214,86.653 24.491,83.855 C24.718,84.848 24.901,85.496 24.938,85.621 C25.249,86.679 26.22,87.399 27.311,87.399 C27.361,87.399 27.415,87.399 27.467,87.391 C28.12,87.352 41.341,86.404 50.462,78.76 C50.691,79.093 50.859,79.335 50.905,79.395 C51.383,80.044 52.129,80.401 52.899,80.401 C53.23,80.401 53.566,80.334 53.886,80.196 C54.422,79.964 64.011,75.691 70.335,67.549 C71.589,68.583 72.458,69.212 72.597,69.311 C73.017,69.612 73.519,69.77 74.03,69.77 C74.179,69.77 74.332,69.757 74.48,69.727 C75.142,69.606 75.722,69.222 76.093,68.665 C76.392,68.21 83.4,57.463 81.088,44.05 Z M73.058,63.359 C72.486,62.871 71.828,62.286 71.129,61.635 C70.522,61.076 69.893,60.464 69.234,59.795 C66.486,56.999 63.509,53.317 61.617,49.185 C61.251,48.394 60.916,47.595 60.649,46.775 C60.36,45.883 60.094,44.989 59.936,44.074 C59.926,44.019 59.933,43.963 59.923,43.905 C59.479,41.169 59.758,38.551 60.406,36.137 C60.769,34.776 61.237,33.49 61.789,32.291 C62.454,30.845 63.195,29.52 63.945,28.376 C63.968,28.341 63.988,28.316 64.01,28.282 C64.715,27.216 65.401,26.303 66.001,25.564 C66.055,25.497 66.118,25.411 66.169,25.349 C66.953,26.268 67.94,27.507 68.99,28.969 C71.822,32.923 75.124,38.618 76.203,44.891 C77.587,52.911 74.966,59.996 73.261,63.533 C73.2,63.483 73.119,63.412 73.058,63.359 Z M54.767,74.158 C54.421,74.356 54.041,74.575 53.749,74.732 C53.422,74.21 53.047,73.573 52.643,72.854 C52.219,72.094 51.771,71.221 51.319,70.278 C50.227,68.026 49.162,65.308 48.456,62.367 C48.23,61.413 48.066,60.439 47.93,59.451 C47.772,58.274 47.702,57.088 47.721,55.884 C48.86,55.638 49.999,55.333 51.155,54.968 C52.295,54.611 53.424,54.18 54.551,53.69 C54.574,53.679 54.592,53.669 54.612,53.664 C55.428,53.304 56.232,52.913 57.021,52.477 C57.189,52.385 57.348,52.275 57.513,52.18 C58.155,53.472 58.894,54.71 59.676,55.899 C61.828,59.165 64.349,61.984 66.611,64.19 C62.971,68.989 57.916,72.374 54.767,74.158 Z M29.205,82.213 C29.152,81.966 29.097,81.627 29.042,81.34 C28.891,80.552 28.744,79.639 28.608,78.608 C28.482,77.661 28.383,76.643 28.311,75.547 C28.2,73.829 28.203,71.987 28.347,70.068 C29.705,69.957 31.129,69.802 32.643,69.543 C33.622,69.372 34.622,69.147 35.634,68.902 C36.62,68.656 37.606,68.351 38.598,68.016 C40.492,67.378 42.351,66.545 44.146,65.506 C45.17,68.988 46.584,72.057 47.856,74.433 C41.902,79.792 33.148,81.647 29.205,82.213 Z M5.58,82.265 C5.458,78.606 5.705,70.753 9.051,64.213 C10.817,64.428 12.804,64.589 14.955,64.589 C15.867,64.589 16.705,64.485 17.576,64.431 C17.605,66.411 17.74,67.699 17.763,67.89 C17.892,69.039 18.799,69.945 19.946,70.075 C20.003,70.086 21.316,70.216 23.332,70.249 C23.137,73.376 23.313,76.334 23.615,78.802 C17.107,82.125 9.29,82.399 5.58,82.265 Z M5.626,58.64 C6.188,54.695 8.03,45.945 13.406,39.979 C15.775,41.25 18.844,42.651 22.309,43.678 C21.258,45.491 20.423,47.384 19.78,49.296 C19.45,50.275 19.151,51.253 18.911,52.224 C18.659,53.232 18.466,54.22 18.298,55.195 C18.038,56.695 17.861,58.133 17.752,59.478 C16.831,59.548 15.932,59.64 14.955,59.64 C14.036,59.64 13.145,59.602 12.288,59.548 C11.19,59.478 10.176,59.369 9.228,59.243 C8.196,59.106 7.302,58.959 6.513,58.807 C6.216,58.755 5.881,58.693 5.626,58.64 Z M24.304,14.57 C27.129,13.201 32.23,11.247 38.313,11.247 C39.879,11.247 41.44,11.379 42.952,11.641 C49.235,12.723 54.934,16.032 58.888,18.87 C60.343,19.912 61.577,20.896 62.494,21.676 C62.432,21.726 62.351,21.787 62.286,21.84 C61.546,22.448 60.626,23.143 59.55,23.856 C59.523,23.873 59.49,23.891 59.466,23.908 C58.314,24.664 56.988,25.414 55.531,26.081 C54.328,26.634 53.047,27.131 51.675,27.493 C50.11,27.907 48.446,28.16 46.718,28.16 C45.818,28.16 44.92,28.069 44.038,27.933 C43.947,27.918 43.85,27.924 43.761,27.908 C42.852,27.749 41.955,27.488 41.068,27.196 C40.239,26.925 39.433,26.586 38.633,26.217 C34.516,24.321 30.847,21.35 28.055,18.606 C27.386,17.95 26.773,17.321 26.211,16.715 C25.563,16.015 24.978,15.361 24.49,14.785 C24.433,14.718 24.356,14.635 24.304,14.57 Z M56.9,30.99 C56.612,31.669 56.34,32.373 56.095,33.099 C55.769,34.057 55.512,35.063 55.292,36.092 C55.224,36.416 55.153,36.738 55.095,37.068 C54.892,38.27 54.776,39.515 54.759,40.796 C54.753,41.217 54.743,41.639 54.763,42.069 C54.78,42.426 54.819,42.79 54.854,43.15 C54.896,43.609 54.938,44.068 55.008,44.534 C55.031,44.664 55.031,44.786 55.055,44.914 C55.207,45.799 55.419,46.671 55.67,47.528 C55.12,47.878 54.552,48.19 53.977,48.485 C53.89,48.533 53.805,48.587 53.721,48.631 C52.734,49.127 51.729,49.55 50.7,49.914 C49.965,50.177 49.235,50.397 48.495,50.602 C47.57,50.852 46.66,51.08 45.75,51.251 C44.859,51.418 43.98,51.573 43.135,51.677 C42.319,51.781 41.528,51.859 40.775,51.909 C40.389,51.939 40.047,51.953 39.682,51.966 C39.523,51.977 39.371,51.981 39.217,51.986 C38.91,51.997 38.584,52.016 38.295,52.023 C37.69,52.034 37.169,52.031 36.661,52.02 C36.39,52.016 36.068,52.02 35.83,52.011 C35.822,51.775 35.826,51.449 35.82,51.177 C35.812,50.676 35.81,50.156 35.822,49.549 C35.829,49.264 35.846,48.942 35.858,48.63 C35.864,48.472 35.868,48.318 35.875,48.155 C35.894,47.796 35.909,47.456 35.934,47.075 C35.99,46.312 36.065,45.513 36.168,44.678 C36.272,43.843 36.426,42.97 36.594,42.086 C36.766,41.179 36.99,40.266 37.243,39.34 C37.445,38.604 37.667,37.88 37.927,37.149 C38.29,36.121 38.715,35.108 39.213,34.119 C39.256,34.033 39.315,33.951 39.358,33.864 C39.655,33.289 39.965,32.723 40.313,32.173 C41.17,32.424 42.039,32.636 42.924,32.787 C43.048,32.81 43.18,32.801 43.311,32.82 C43.839,32.903 44.373,32.914 44.912,32.957 C45.201,32.979 45.486,33.018 45.783,33.03 C46.095,33.045 46.403,33.111 46.721,33.111 C46.828,33.111 46.935,33.096 47.047,33.094 C48.326,33.078 49.571,32.956 50.775,32.746 C51.101,32.69 51.421,32.619 51.743,32.55 C52.781,32.328 53.793,32.053 54.758,31.726 C55.477,31.483 56.177,31.222 56.852,30.935 C56.886,30.92 56.919,30.904 56.956,30.89 C56.935,30.923 56.918,30.953 56.9,30.99 Z M22.617,61.304 C22.659,60.49 22.734,59.621 22.833,58.71 C23.018,56.983 23.335,55.144 23.812,53.255 C24.041,52.338 24.308,51.427 24.628,50.513 C24.949,49.592 25.295,48.685 25.719,47.794 C26.21,46.769 26.768,45.767 27.416,44.817 C28.631,44.991 29.872,45.09 31.125,45.114 C31.051,45.829 30.994,46.513 30.954,47.175 C30.899,48.054 30.862,48.89 30.85,49.649 C30.836,50.587 30.85,51.394 30.876,52.103 C30.876,52.111 30.876,52.116 30.876,52.12 C30.921,53.421 30.999,54.274 31.026,54.53 C31.029,54.553 31.033,54.611 31.035,54.624 C31.064,54.88 31.143,55.118 31.244,55.343 C31.493,55.909 31.936,56.349 32.499,56.598 C32.724,56.699 32.961,56.78 33.217,56.806 C33.221,56.806 33.291,56.813 33.312,56.817 C33.509,56.839 34.34,56.921 35.706,56.963 C35.716,56.963 35.732,56.963 35.746,56.963 C36.227,56.982 36.759,56.991 37.351,56.991 C37.608,56.991 37.922,56.973 38.197,56.97 C38.971,56.957 39.798,56.923 40.696,56.867 C41.36,56.826 42.024,56.785 42.738,56.709 C42.761,57.971 42.845,59.219 43.019,60.439 C42.084,61.077 41.095,61.626 40.081,62.11 C39.183,62.542 38.26,62.896 37.332,63.216 C36.411,63.539 35.493,63.809 34.569,64.04 C32.685,64.511 30.855,64.824 29.132,65.012 C28.221,65.107 27.358,65.182 26.539,65.224 C25.597,65.272 24.747,65.294 23.978,65.294 C23.48,65.291 22.964,65.294 22.561,65.28 C22.548,64.857 22.548,64.316 22.548,63.788 C22.548,63.043 22.569,62.216 22.617,61.304 Z M31.958,28.178 C33.132,28.949 34.352,29.679 35.631,30.317 C35.532,30.484 35.438,30.654 35.346,30.822 C34.909,31.607 34.511,32.402 34.153,33.21 C34.13,33.259 34.107,33.305 34.088,33.352 C33.6,34.47 33.164,35.596 32.81,36.727 C32.447,37.882 32.162,39.031 31.916,40.167 C31.829,40.169 31.745,40.182 31.654,40.182 C31.652,40.182 31.652,40.182 31.652,40.182 C30.548,40.182 29.456,40.083 28.372,39.937 C27.381,39.8 26.407,39.614 25.453,39.383 C22.517,38.676 19.818,37.601 17.568,36.515 C16.621,36.059 15.759,35.61 14.998,35.187 C14.286,34.789 13.63,34.408 13.113,34.086 C13.271,33.794 13.492,33.414 13.689,33.068 C15.477,29.92 18.858,24.87 23.657,21.238 C25.863,23.503 28.687,26.028 31.958,28.178 Z" id="Shape"></path>
            </g>
            <g id="noun_1031775" transform="translate(46.000000, 38.000000)" fill="#FFFFFF">
                <path d="M121.085192,27.166 L107.405764,27.166 L107.405764,20.1310909 C107.405764,9.03163636 98.4335341,0 87.4070868,0 L21.9945536,0 C10.9681063,0 1.9974113,9.03163636 1.9974113,20.1310909 L1.9974113,115.476364 C0.713909495,117.247455 0,119.403364 0,121.624182 L0,125.577455 C0,131.325 4.64424994,136 10.3539906,136 L99.0476498,136 C104.75739,136 109.40164,131.325 109.40164,125.577455 L109.40164,121.624182 C109.40164,119.403364 108.687731,117.249 107.404229,115.476364 L107.404229,109.932818 L121.083656,109.932818 C129.860905,109.932818 137,102.744909 137,93.9095455 L137,43.1908182 C137.001535,34.3539091 129.86244,27.166 121.085192,27.166 Z M9.9563507,20.1310909 C9.9563507,13.4485455 15.3574982,8.01163636 21.9945536,8.01163636 L87.4070868,8.01163636 C94.0456775,8.01163636 99.446825,13.4485455 99.446825,20.1310909 L99.446825,27.166 L9.9563507,27.166 L9.9563507,20.1310909 Z M101.444236,125.577455 C101.444236,126.906545 100.371069,127.988364 99.0476498,127.988364 L10.3539906,127.988364 C9.03364187,127.988364 7.9589394,126.908091 7.9589394,125.577455 L7.9589394,121.624182 C7.9589394,120.950364 8.22761502,120.329091 8.71276642,119.868545 C9.59248715,119.060273 10.106809,117.864091 9.99780351,116.576727 C9.9701683,116.236727 9.95481541,115.887455 9.95481541,115.536636 L9.95481541,32.5086364 L99.4452897,32.5086364 L99.4452897,115.538182 C99.4452897,115.881273 99.4299368,116.230545 99.4007663,116.578273 C99.2932961,117.878 99.8152944,119.080364 100.708833,119.890182 C100.999002,120.173 101.444236,120.744818 101.444236,121.625727 L101.444236,125.577455 Z M107.405764,49.7512727 L114.305354,49.7512727 L114.305354,87.3490909 L107.405764,87.3490909 L107.405764,49.7512727 Z M129.044131,93.9110909 C129.044131,98.328 125.473048,101.924273 121.085192,101.924273 L111.385234,101.924273 L111.385234,95.3638182 L118.284824,95.3638182 C120.483358,95.3638182 122.264294,93.5695455 122.264294,91.3564545 L122.264294,45.7454545 C122.264294,43.5323636 120.483358,41.7396364 118.284824,41.7396364 L111.385234,41.7396364 L111.385234,35.1791818 L121.085192,35.1791818 C125.471513,35.1791818 129.044131,38.7739091 129.044131,43.1908182 L129.044131,93.9110909 Z" id="Shape"></path>
            </g>
        </g>
    </g>
</svg>